# xmcd CD database file
#
# Track frame offsets:
#	150
#	7275
#	16425
#	35700
#	45825
#	60450
#	72225
#	88950
#	105375
#	122625
#	132150
#	143550
#	152700
#	161475
#	174675
#	193200
#	219975
#	236550
#	250575
#	269550
#
# Disc length: 3802 seconds
#
# Revision: 0
# Processed by: cddbd v1.5.2PL0 Copyright (c) Steve Scherf et al.
# Submitted via: CDex 1.51
#
DISCID=180ed814
DTITLE=Kym Frankovelgia - One For The Road 
DYEAR=2006
DGENRE=Jazz
TTITLE0=001 - As Long As I'm Singing
TTITLE1=002 - I'm A Woman
TTITLE2=003 - The Nearness of You
TTITLE3=004 - Taking A Chance
TTITLE4=005 - Guess Who I Saw
TTITLE5=006 - Our Love Is Here To Stay
TTITLE6=007 - Let's Do It
TTITLE7=008 - Every Road Leads Back To You
TTITLE8=009 - Living Alone
TTITLE9=010 - You Do Something To Me
TTITLE10=011 - Twisted
TTITLE11=012 - But The World Goes Round
TTITLE12=013 Minute Waltz
TTITLE13=014 - The Shadow of Your Smile
TTITLE14=015  You' re Gonna Hear From Me
TTITLE15=016 I Can Dream I - I'll Be Seein' You
TTITLE16=017 - Just One Of Those Things
TTITLE17=018 - Regretting What I Said
TTITLE18=019 - One For My Baby
TTITLE19=020 - The Curtain Falls
EXTD=YEAR: 2006
EXTT0=
EXTT1=
EXTT2=
EXTT3=
EXTT4=
EXTT5=
EXTT6=
EXTT7=
EXTT8=
EXTT9=
EXTT10=
EXTT11=
EXTT12=
EXTT13=
EXTT14=
EXTT15=
EXTT16=
EXTT17=
EXTT18=
EXTT19=
PLAYORDER=
